<?xml version="1.0" encoding="UTF-8" standalone="no"?>
<!-- Created with Inkscape (http://www.inkscape.org/) -->

<svg
   width="7680"
   height="4320"
   viewBox="0 0 2032 1143"
   version="1.1"
   id="svg5"
   inkscape:version="1.1.2 (b8e25be833, 2022-02-05)"
   sodipodi:docname="LogoJohannesSchmolke.svg"
   inkscape:export-filename="C:\Johannes Musik\Logo Idee 4 blau.png"
   inkscape:export-xdpi="96"
   inkscape:export-ydpi="96"
   xmlns:inkscape="http://www.inkscape.org/namespaces/inkscape"
   xmlns:sodipodi="http://sodipodi.sourceforge.net/DTD/sodipodi-0.dtd"
   xmlns="http://www.w3.org/2000/svg"
   xmlns:svg="http://www.w3.org/2000/svg">
  <sodipodi:namedview
     id="namedview7"
     pagecolor="#ffffff"
     bordercolor="#eeeeee"
     borderopacity="1"
     inkscape:pageshadow="0"
     inkscape:pageopacity="0"
     inkscape:pagecheckerboard="false"
     inkscape:document-units="mm"
     showgrid="false"
     showborder="true"
     inkscape:zoom="0.05656854"
     inkscape:cx="2801.9107"
     inkscape:cy="5320.9788"
     inkscape:window-width="1920"
     inkscape:window-height="1017"
     inkscape:window-x="-8"
     inkscape:window-y="-8"
     inkscape:window-maximized="1"
     inkscape:current-layer="g1174"
     showguides="false"
     units="px">
    <inkscape:grid
       type="xygrid"
       id="grid226241" />
  </sodipodi:namedview>
  <defs
     id="defs2">
    <rect
       x="384"
       y="1524"
       width="128"
       height="108"
       id="rect125175" />
    <rect
       x="628"
       y="176"
       width="4"
       height="48"
       id="rect116647" />
    <rect
       x="-1544"
       y="1140"
       width="2673.6289"
       height="332.21198"
       id="rect107263" />
    <rect
       x="-1532"
       y="1136"
       width="1928"
       height="468"
       id="rect105079" />
  </defs>
  <g
     inkscape:groupmode="layer"
     id="layer8"
     inkscape:label="Kreis"
     style="display:inline;opacity:1" />
  <g
     inkscape:groupmode="layer"
     id="layer4"
     inkscape:label="Farbe"
     style="display:inline" />
  <g
     inkscape:groupmode="layer"
     id="layer7"
     inkscape:label="Pause 2"
     style="display:inline;opacity:0.99308">
    <text
       xml:space="preserve"
       transform="scale(0.26458333)"
       id="text105077"
       style="font-style:normal;font-weight:normal;font-size:40px;line-height:1.25;font-family:sans-serif;white-space:pre;shape-inside:url(#rect105079);fill:#000000;fill-opacity:1;stroke:none" />
    <text
       xml:space="preserve"
       transform="matrix(0.71060333,0,0,0.7925693,326.96626,-631.39586)"
       id="text107261"
       style="font-style:normal;font-variant:normal;font-weight:300;font-stretch:normal;font-size:192px;line-height:1.75;font-family:Corbel;-inkscape-font-specification:'Corbel Light';letter-spacing:36.8987px;word-spacing:0.0708519px;white-space:pre;shape-inside:url(#rect107263);fill:#000000;fill-opacity:1;stroke:none" />
    <text
       xml:space="preserve"
       transform="scale(0.26458333)"
       id="text116645"
       style="font-style:normal;font-weight:normal;font-size:40px;line-height:1.25;font-family:sans-serif;white-space:pre;shape-inside:url(#rect116647);fill:#000000;fill-opacity:1;stroke:none" />
    <text
       xml:space="preserve"
       transform="scale(0.26458333)"
       id="text125173"
       style="font-style:normal;font-weight:normal;font-size:40px;line-height:1.25;font-family:sans-serif;white-space:pre;shape-inside:url(#rect125175);fill:#000000;fill-opacity:1;stroke:none" />
  </g>
  <g
     inkscape:groupmode="layer"
     id="layer11"
     inkscape:label="Text" />
  <g
     inkscape:groupmode="layer"
     id="layer9"
     inkscape:label="Pause 3"
     style="display:inline">
    <g
       id="g227248"
       transform="matrix(1.3341339,0,0,1.3711201,1304.7687,473.35086)">
      <g
         id="g1174"
         transform="translate(-43.329598,-16.370259)">
        <path
           style="display:inline;opacity:1;fill:#b3ff80;fill-opacity:1;stroke:none"
           id="path82291"
           sodipodi:type="arc"
           sodipodi:cx="-165.20189"
           sodipodi:cy="17.178068"
           sodipodi:rx="260.87918"
           sodipodi:ry="262.46667"
           sodipodi:start="0"
           sodipodi:end="6.2604611"
           sodipodi:open="true"
           sodipodi:arc-type="arc"
           d="M 95.677292,17.178068 A 260.87918,262.46667 0 0 1 -163.71983,279.64051 260.87918,262.46667 0 0 1 -426.06423,20.160178 260.87918,262.46667 0 0 1 -169.64788,-245.25049 260.87918,262.46667 0 0 1 95.609937,11.214234" />
        <path
           style="display:inline;opacity:1;fill:#333333;fill-opacity:1;stroke:none;stroke-width:0.748355"
           d="m -238.72623,216.20537 c 13.40137,-17.05945 28.53793,-37.43266 37.62149,-53.10574 12.58039,-21.70665 25.61418,-56.84015 35.49538,-95.680358 11.29408,-44.393833 18.45241,-67.9427316 26.98563,-88.775018 11.03552,-26.941242 26.35581,-48.988759 54.515001,-78.452911 12.770801,-13.362623 23.748312,-23.180853 35.99322,-32.192143 10.537448,-7.75473 31.10137,-21.08047 31.672668,-20.49806 0.192806,0.19657 -7.308915,4.88857 -10.769212,7.59422 -13.293179,10.39413 -23.796833,17.71258 -38.290366,33.11446 -23.390951,24.856921 -39.807311,49.551533 -53.017981,79.753303 -15.16469,34.6689886 -21.64393,54.144842 -33.25601,99.963666 -6.37031,25.135918 -12.31815,41.670741 -22.26702,61.901711 -8.66493,17.62007 -25.11076,43.4967 -40.6776,63.08558 -10.75077,13.52849 -34.72663,37.22026 -36.09747,37.20705 -0.38023,-0.004 8.29607,-9.08334 12.09227,-13.91576 z"
           id="path68604"
           sodipodi:nodetypes="assssssassssasa" />
        <path
           style="display:inline;opacity:1;fill:#333333;fill-opacity:1;stroke:none;stroke-width:0.559286"
           d="m -284.93863,196.0221 c 8.27118,-10.82484 16.332,-21.83115 23.7922,-33.23005 12.58499,-19.22937 25.00078,-38.67696 35.30751,-59.21769 7.68073,-15.307254 15.57983,-27.271745 21.5624,-41.74605 3.77932,-9.143744 8.09537,-20.007139 8.97294,-28.293256 0.19247,-1.81733 0.73839,-4.04418 -0.46019,-5.392476 -1.1333,-1.274862 -3.3751,-1.617351 -5.01268,-1.0295 -10.11472,3.630897 -31.24195,21.986966 -49.44398,23.817553 -14.48547,1.456811 -31.63536,-0.866503 -42.33466,-10.7395 -9.1539,-8.446947 -15.68685,-23.223713 -12.06362,-35.3662632 2.23558,-6.3393827 8.66715,6.7199702 9.06714,11.8878492 1.02047,2.602973 2.19195,2.048531 1.6732,3.102937 -0.52915,1.075558 -2.83784,-0.385458 -3.54904,0.579439 -0.41824,0.56744 -0.005,1.455087 0.29219,2.094486 2.23117,4.806755 6.25615,9.251312 10.60838,11.841002 10.31906,6.140106 23.68747,6.818475 35.61319,5.418091 13.67506,-1.605801 26.01089,-9.268484 38.28703,-15.50405 6.39217,-3.246849 9.88712,-5.9038 16.42348,-9.047319 2.66448,-1.281423 7.47637,-1.886317 9.95866,0.32028 3.39975,3.022166 3.46498,7.837557 2.03402,13.494041 -1.60254,6.334687 -5.85293,21.314884 -10.0317,31.517404 -6.15002,15.015368 -13.93478,29.344453 -22.01642,43.414672 -11.70693,20.38189 -24.47967,40.19014 -38.25387,59.23601 -8.18398,11.31615 -16.91365,22.27302 -26.30699,32.60733 -6.05179,6.65802 -24.53451,25.05099 -19.29918,18.87118 0,0 10.31546,-12.26981 15.17991,-18.63612 z"
           id="path75298"
           sodipodi:nodetypes="aasasasaaccaaasassasaaaasaa" />
        <g
           aria-label="Johannes Schmolke"
           transform="scale(1.0039747,0.99604102)"
           id="text198099"
           style="font-weight:300;font-size:103.232px;line-height:1.25;font-family:Corbel;-inkscape-font-specification:'Corbel Light';letter-spacing:43.0136px;stroke-width:0.537668">
          <path
             d="m -914.87586,421.40784 v -4.33494 q 3.83088,1.5626 7.81297,1.5626 5.19184,0 8.31703,-2.52031 3.17559,-2.57072 3.17559,-9.37557 v -52.52331 h 4.43575 v 53.88428 q 0,3.93169 -1.76421,7.46013 -1.71382,3.47803 -5.14144,5.39347 -3.42763,1.91543 -8.72028,1.91543 -5.79672,-0.10081 -8.11541,-1.46178 z"
             id="path5640" />
          <path
             d="m -833.85595,398.17056 q 0,-11.291 5.74632,-18.04544 5.79672,-6.80484 15.3739,-6.80484 9.6276,0 15.2731,6.75444 5.6959,6.75443 5.6959,18.09584 0,11.03897 -5.79672,17.89422 -5.79671,6.80484 -15.17228,6.80484 -9.62759,0 -15.3739,-6.70403 -5.74632,-6.75444 -5.74632,-17.99503 z m 37.8551,0 q 0,-9.72841 -4.53656,-15.42431 -4.53657,-5.74632 -12.19832,-5.74632 -7.76256,0 -12.34953,5.69591 -4.53656,5.69591 -4.53656,15.47472 0,9.678 4.48616,15.3235 4.53656,5.6455 12.39993,5.6455 7.76257,0 12.24872,-5.59509 4.48616,-5.6455 4.48616,-15.37391 z"
             id="path5642" />
          <path
             d="m -730.25404,348.62121 v 28.1771 l -0.20162,5.39347 h 0.20162 q 6.452,-8.8715 15.77716,-8.8715 7.81297,0 11.44222,4.58697 3.62925,4.53656 3.62925,12.65197 v 31.05025 h -3.9821 v -31.4031 q 0,-6.19997 -2.77234,-9.678 -2.72194,-3.52844 -8.51866,-3.52844 -9.02271,0 -15.57553,9.82922 v 34.78032 h -4.0325 v -72.98826 z"
             id="path5644" />
          <path
             d="m -642.6813,408.10059 q 0,-6.40159 4.53656,-10.33328 4.58697,-3.93169 11.79506,-3.93169 6.80485,0 14.4666,2.77235 v -6.04875 q 0,-6.70404 -3.47804,-10.13166 -3.47803,-3.42763 -11.08937,-3.42763 -4.99022,0 -12.0975,2.3691 v -3.78047 q 1.51219,-0.90731 5.04062,-1.56259 3.57885,-0.70569 7.05688,-0.70569 9.42597,0 14.01294,4.28453 4.58697,4.28453 4.58697,12.95441 V 406.538 q 0,4.99022 0.40325,15.07147 h -3.62925 l -0.70569,-5.49428 h -0.20163 q -2.36909,2.72193 -6.75443,4.73818 -4.38535,2.01625 -8.61947,2.01625 -6.90566,0 -11.13978,-3.67965 -4.18372,-3.67966 -4.18372,-11.08938 z m 30.79822,3.78047 V 400.1364 q -3.78047,-1.41137 -6.80485,-1.96584 -2.97397,-0.60488 -8.16581,-0.60488 -5.49428,0 -8.61947,2.77235 -3.07478,2.72194 -3.07478,7.76256 0,5.6455 3.07478,8.41785 3.07478,2.72193 8.11541,2.72193 5.49428,0 9.12353,-2.16747 3.62925,-2.16746 6.35119,-5.19184 z"
             id="path5646" />
          <path
             d="m -543.66637,374.53003 0.70569,7.66175 h 0.10081 q 2.92356,-4.18372 6.95606,-6.50241 4.08291,-2.36909 8.82109,-2.36909 7.46013,0 11.2406,4.38534 3.83087,4.38535 3.83087,12.8536 v 31.05025 h -3.98209 v -30.54619 q 0,-7.05688 -2.72194,-10.53491 -2.72194,-3.52844 -8.8715,-3.52844 -4.28453,0 -8.31703,2.67154 -4.0325,2.62112 -6.95606,7.15768 v 34.78032 h -4.0325 v -47.07944 z"
             id="path5648" />
          <path
             d="m -448.33108,374.53003 0.70569,7.66175 h 0.10081 q 2.92357,-4.18372 6.95607,-6.50241 4.0829,-2.36909 8.82109,-2.36909 7.46013,0 11.24059,4.38534 3.83088,4.38535 3.83088,12.8536 v 31.05025 h -3.98209 v -30.54619 q 0,-7.05688 -2.72194,-10.53491 -2.72194,-3.52844 -8.8715,-3.52844 -4.28453,0 -8.31703,2.67154 -4.0325,2.62112 -6.95607,7.15768 v 34.78032 h -4.0325 v -47.07944 z"
             id="path5650" />
          <path
             d="m -359.69981,397.56568 q 0,-7.35931 2.57072,-12.85359 2.57072,-5.49428 7.05687,-8.41784 4.48616,-2.97397 10.08125,-2.97397 8.26663,0 13.20644,5.44387 4.93981,5.39347 4.93981,17.03732 v 1.76421 h -33.62097 q 0,11.13979 4.88941,16.38204 4.88941,5.19184 13.76091,5.19184 7.56094,0 13.30725,-2.67153 v 3.78047 q -4.68778,2.62112 -13.30725,2.62112 -10.98857,0 -16.9365,-6.60322 -5.94794,-6.60321 -5.94794,-18.70072 z m 19.70884,-20.66656 q -6.25037,0 -10.5349,4.7886 -4.28453,4.73818 -4.839,12.24871 h 29.38684 q -0.15122,-8.36743 -3.67965,-12.70237 -3.52844,-4.33494 -10.33329,-4.33494 z"
             id="path5652" />
          <path
             d="m -266.98566,420.45012 v -4.18372 q 5.44388,2.97397 12.80319,2.97397 5.99835,0 9.47638,-2.77234 3.52844,-2.82275 3.52844,-7.86338 0,-3.83087 -2.31869,-5.89753 -2.31869,-2.06665 -7.76256,-3.37722 -4.99022,-1.20975 -8.16582,-2.52031 -3.17559,-1.31056 -5.19184,-3.83087 -2.01625,-2.52032 -2.01625,-6.65363 0,-6.60322 4.43575,-9.77881 4.43575,-3.226 11.34141,-3.226 6.30078,0 11.74465,2.67153 v 3.93169 q -2.92356,-1.46178 -5.6959,-2.21788 -2.72194,-0.8065 -6.35119,-0.8065 -5.69591,0 -8.66988,2.3691 -2.92356,2.36909 -2.92356,6.70403 0,3.02437 1.36097,4.73818 1.41137,1.66341 3.83087,2.57072 2.4195,0.90732 7.30891,2.11707 6.80484,1.71381 9.87963,4.63737 3.12518,2.87316 3.12518,8.26663 0,6.65362 -4.53656,10.63572 -4.53656,3.93168 -12.39994,3.93168 -8.46825,0 -12.80319,-2.4195 z"
             id="path5654" />
          <path
             d="m -121.83189,419.24037 v -4.839 q 2.4699,1.51219 8.065,2.92357 5.59509,1.41137 9.27475,1.41137 9.073123,0 14.063342,-3.37722 5.040625,-3.37722 5.040625,-11.49262 0,-4.08291 -1.713812,-6.75444 -1.663407,-2.67153 -4.586969,-4.28453 -2.923563,-1.613 -10.484496,-3.67966 -6.55282,-1.66341 -10.53491,-3.27641 -3.98209,-1.6634 -6.70403,-5.09103 -2.72194,-3.47803 -2.72194,-9.32515 0,-8.41785 6.04875,-13.50888 6.09916,-5.09103 15.92838,-5.09103 6.451996,0 12.601558,1.86503 2.469907,0.90731 4.43575,1.86503 v 4.839 q -3.074781,-1.41137 -5.292656,-2.26828 -2.167469,-0.90731 -5.292656,-1.56259 -3.074782,-0.65528 -6.754436,-0.70569 -8.72028,0 -12.95441,4.0325 -4.18372,4.0325 -4.18372,10.73653 0,4.23413 1.81463,6.65363 1.86503,2.4195 4.99022,3.73006 3.12518,1.31056 9.32515,3.02437 6.956066,1.91544 10.887753,3.57885 3.931688,1.613 6.804844,5.24225 2.923563,3.57884 2.923563,9.77881 0,9.07313 -6.250375,14.16416 -6.199969,5.04062 -17.692595,5.04062 -4.73819,0 -9.87962,-1.26015 -5.14144,-1.26016 -7.15769,-2.3691 z"
             id="path5656" />
          <path
             d="m -25.740521,398.473 q 0,-8.97232 3.226,-14.56741 3.276407,-5.6455 8.216219,-8.11541 4.9398127,-2.4699 10.2324691,-2.4699 3.57884383,0 6.9056564,0.75609 3.3268126,0.70569 5.4438751,1.91544 v 4.13331 q -2.621125,-1.41137 -6.0487501,-2.26828 -3.3772188,-0.85691 -6.4015939,-0.85691 -4.3853438,0 -8.3674376,2.16747 -3.931688,2.11707 -6.452,6.95607 -2.520313,4.839 -2.520313,12.45034 0,9.42597 4.939813,15.02106 4.939812,5.54469 13.3072501,5.54469 5.4438751,0 12.2991253,-2.87316 v 3.78047 q -5.6455001,2.82275 -12.6015628,2.82275 -6.1999689,0 -11.2405936,-2.67153 -4.990219,-2.67153 -7.964188,-8.1154 -2.973969,-5.49429 -2.973969,-13.60969 z"
             id="path5658" />
          <path
             d="m 69.796378,348.62121 v 28.1771 l -0.201625,5.39347 h 0.201625 q 6.452,-8.8715 15.777156,-8.8715 7.812969,0 11.442219,4.58697 3.629247,4.53656 3.629247,12.65197 v 31.05025 h -3.98209 v -31.4031 q 0,-6.19997 -2.772344,-9.678 -2.721938,-3.52844 -8.518657,-3.52844 -9.022719,0 -15.575531,9.82922 v 34.78032 h -4.0325 v -72.98826 z"
             id="path5660" />
          <path
             d="m 164.32514,374.53003 0.8065,6.60322 h 0.10082 q 3.32681,-3.93169 6.80484,-5.84713 3.47803,-1.96584 8.46825,-1.96584 5.99834,0 9.72841,2.77234 3.73006,2.77235 5.04062,6.80485 h 0.20163 q 3.42762,-4.88941 7.20809,-7.2081 3.83088,-2.36909 8.92191,-2.36909 7.76256,0 11.79506,4.48615 4.08291,4.43575 4.08291,12.50075 v 31.30229 h -4.0325 V 391.2649 q 0,-14.26497 -12.14791,-14.26497 -4.88941,0 -8.41784,2.67154 -3.47804,2.62112 -6.55282,7.56093 v 34.37707 h -4.0325 v -31.80635 q 0,-5.94794 -3.226,-9.37556 -3.17559,-3.42763 -9.07312,-3.42763 -4.53656,0 -8.0146,2.16747 -3.47803,2.16747 -6.85525,6.30078 v 36.14129 h -4.0325 v -47.07944 z"
             id="path5662" />
          <path
             d="m 284.46035,398.17056 q 0,-11.291 5.74631,-18.04544 5.79672,-6.80484 15.37391,-6.80484 9.62759,0 15.27309,6.75444 5.69591,6.75443 5.69591,18.09584 0,11.03897 -5.79672,17.89422 -5.79672,6.80484 -15.17228,6.80484 -9.6276,0 -15.37391,-6.70403 -5.74631,-6.75444 -5.74631,-17.99503 z m 37.85509,0 q 0,-9.72841 -4.53656,-15.42431 -4.53656,-5.74632 -12.19831,-5.74632 -7.76257,0 -12.34954,5.69591 -4.53656,5.69591 -4.53656,15.47472 0,9.678 4.48616,15.3235 4.53656,5.6455 12.39994,5.6455 7.76256,0 12.24871,-5.59509 4.48616,-5.6455 4.48616,-15.37391 z"
             id="path5664" />
          <path
             d="m 384.02969,348.62121 h 4.0325 v 72.98826 h -4.0325 z"
             id="path5666" />
          <path
             d="m 483.39747,374.53003 -25.30394,21.27144 25.20313,25.808 h -5.34306 l -24.79988,-25.60638 h -0.10081 v 25.60638 h -4.0325 v -72.98826 h 4.0325 v 46.47457 h 0.10081 l 24.69906,-20.56575 z"
             id="path5668" />
          <path
             d="m 532.15749,397.56568 q 0,-7.35931 2.57072,-12.85359 2.57072,-5.49428 7.05687,-8.41784 4.48616,-2.97397 10.08125,-2.97397 8.26663,0 13.20644,5.44387 4.93981,5.39347 4.93981,17.03732 v 1.76421 h -33.62097 q 0,11.13979 4.88941,16.38204 4.88941,5.19184 13.76091,5.19184 7.56094,0 13.30725,-2.67153 v 3.78047 q -4.68778,2.62112 -13.30725,2.62112 -10.98857,0 -16.9365,-6.60322 -5.94794,-6.60321 -5.94794,-18.70072 z m 19.70884,-20.66656 q -6.25037,0 -10.5349,4.7886 -4.28453,4.73818 -4.839,12.24871 h 29.38684 q -0.15122,-8.36743 -3.67965,-12.70237 -3.52844,-4.33494 -10.33329,-4.33494 z"
             id="path5670" />
        </g>
        <path
           style="opacity:1;fill:#333333;fill-opacity:1;stroke:none"
           id="path87955"
           sodipodi:type="arc"
           sodipodi:cx="-293.98462"
           sodipodi:cy="8.489604"
           sodipodi:rx="11.085624"
           sodipodi:ry="11.976869"
           sodipodi:start="0"
           sodipodi:end="6.2604611"
           sodipodi:arc-type="arc"
           d="m -282.899,8.489604 a 11.085624,11.976869 0 0 1 -11.02264,11.976675 11.085624,11.976869 0 0 1 -11.14789,-11.8405955 11.085624,11.976869 0 0 1 10.89599,-12.1112087 11.085624,11.976869 0 0 1 11.27168,11.7029878"
           sodipodi:open="true" />
      </g>
    </g>
  </g>
</svg>
