<?xml version="1.0" encoding="UTF-8" standalone="no"?>
<!-- Created with Inkscape (http://www.inkscape.org/) -->

<svg
   width="7680"
   height="4320"
   viewBox="0 0 2032 1143"
   version="1.1"
   id="svg5"
   inkscape:version="1.1.2 (b8e25be833, 2022-02-05)"
   sodipodi:docname="LogoJohannesSchmolke.svg"
   inkscape:export-filename="C:\Johannes Musik\Logo Idee 4 blau.png"
   inkscape:export-xdpi="96"
   inkscape:export-ydpi="96"
   xmlns:inkscape="http://www.inkscape.org/namespaces/inkscape"
   xmlns:sodipodi="http://sodipodi.sourceforge.net/DTD/sodipodi-0.dtd"
   xmlns="http://www.w3.org/2000/svg"
   xmlns:svg="http://www.w3.org/2000/svg">
  <sodipodi:namedview
     id="namedview7"
     pagecolor="#ffffff"
     bordercolor="#eeeeee"
     borderopacity="1"
     inkscape:pageshadow="0"
     inkscape:pageopacity="0"
     inkscape:pagecheckerboard="false"
     inkscape:document-units="mm"
     showgrid="false"
     showborder="true"
     inkscape:zoom="0.05656854"
     inkscape:cx="2801.9107"
     inkscape:cy="5320.9788"
     inkscape:window-width="1920"
     inkscape:window-height="1017"
     inkscape:window-x="-8"
     inkscape:window-y="-8"
     inkscape:window-maximized="1"
     inkscape:current-layer="layer9"
     showguides="false"
     units="px">
    <inkscape:grid
       type="xygrid"
       id="grid226241" />
  </sodipodi:namedview>
  <defs
     id="defs2">
    <rect
       x="384"
       y="1524"
       width="128"
       height="108"
       id="rect125175" />
    <rect
       x="628"
       y="176"
       width="4"
       height="48"
       id="rect116647" />
    <rect
       x="-1544"
       y="1140"
       width="2673.6289"
       height="332.21198"
       id="rect107263" />
    <rect
       x="-1532"
       y="1136"
       width="1928"
       height="468"
       id="rect105079" />
  </defs>
  <g
     inkscape:groupmode="layer"
     id="layer8"
     inkscape:label="Kreis"
     style="display:inline;opacity:1" />
  <g
     inkscape:groupmode="layer"
     id="layer4"
     inkscape:label="Farbe"
     style="display:inline" />
  <g
     inkscape:groupmode="layer"
     id="layer7"
     inkscape:label="Pause 2"
     style="display:inline;opacity:0.99308">
    <text
       xml:space="preserve"
       transform="scale(0.26458333)"
       id="text105077"
       style="font-style:normal;font-weight:normal;font-size:40px;line-height:1.25;font-family:sans-serif;white-space:pre;shape-inside:url(#rect105079);fill:#000000;fill-opacity:1;stroke:none" />
    <text
       xml:space="preserve"
       transform="matrix(0.71060333,0,0,0.7925693,326.96626,-631.39586)"
       id="text107261"
       style="font-style:normal;font-variant:normal;font-weight:300;font-stretch:normal;font-size:192px;line-height:1.75;font-family:Corbel;-inkscape-font-specification:'Corbel Light';letter-spacing:36.8987px;word-spacing:0.0708519px;white-space:pre;shape-inside:url(#rect107263);fill:#000000;fill-opacity:1;stroke:none" />
    <text
       xml:space="preserve"
       transform="scale(0.26458333)"
       id="text116645"
       style="font-style:normal;font-weight:normal;font-size:40px;line-height:1.25;font-family:sans-serif;white-space:pre;shape-inside:url(#rect116647);fill:#000000;fill-opacity:1;stroke:none" />
    <text
       xml:space="preserve"
       transform="scale(0.26458333)"
       id="text125173"
       style="font-style:normal;font-weight:normal;font-size:40px;line-height:1.25;font-family:sans-serif;white-space:pre;shape-inside:url(#rect125175);fill:#000000;fill-opacity:1;stroke:none" />
  </g>
  <g
     inkscape:groupmode="layer"
     id="layer11"
     inkscape:label="Text" />
  <g
     inkscape:groupmode="layer"
     id="layer9"
     inkscape:label="Pause 3"
     style="display:inline">
    <g
       id="g227248"
       transform="matrix(1.3341339,0,0,1.3711201,1304.7687,473.35086)">
      <g
         id="g1174"
         transform="translate(-43.329598,-16.370259)">
        <path
           style="display:inline;opacity:1;fill:#b3ff80;fill-opacity:1;stroke:none"
           id="path82291"
           sodipodi:type="arc"
           sodipodi:cx="-165.20189"
           sodipodi:cy="17.178068"
           sodipodi:rx="260.87918"
           sodipodi:ry="262.46667"
           sodipodi:start="0"
           sodipodi:end="6.2604611"
           sodipodi:open="true"
           sodipodi:arc-type="arc"
           d="M 95.677292,17.178068 A 260.87918,262.46667 0 0 1 -163.71983,279.64051 260.87918,262.46667 0 0 1 -426.06423,20.160178 260.87918,262.46667 0 0 1 -169.64788,-245.25049 260.87918,262.46667 0 0 1 95.609937,11.214234" />
        <path
           style="display:inline;opacity:1;fill:#333333;fill-opacity:1;stroke:none;stroke-width:0.748355"
           d="m -238.72623,216.20537 c 13.40137,-17.05945 28.53793,-37.43266 37.62149,-53.10574 12.58039,-21.70665 25.61418,-56.84015 35.49538,-95.680358 11.29408,-44.393833 18.45241,-67.9427316 26.98563,-88.775018 11.03552,-26.941242 26.35581,-48.988759 54.515001,-78.452911 12.770801,-13.362623 23.748312,-23.180853 35.99322,-32.192143 10.537448,-7.75473 31.10137,-21.08047 31.672668,-20.49806 0.192806,0.19657 -7.308915,4.88857 -10.769212,7.59422 -13.293179,10.39413 -23.796833,17.71258 -38.290366,33.11446 -23.390951,24.856921 -39.807311,49.551533 -53.017981,79.753303 -15.16469,34.6689886 -21.64393,54.144842 -33.25601,99.963666 -6.37031,25.135918 -12.31815,41.670741 -22.26702,61.901711 -8.66493,17.62007 -25.11076,43.4967 -40.6776,63.08558 -10.75077,13.52849 -34.72663,37.22026 -36.09747,37.20705 -0.38023,-0.004 8.29607,-9.08334 12.09227,-13.91576 z"
           id="path68604"
           sodipodi:nodetypes="assssssassssasa" />
        <path
           style="display:inline;opacity:1;fill:#333333;fill-opacity:1;stroke:none;stroke-width:0.559286"
           d="m -284.93863,196.0221 c 8.27118,-10.82484 16.332,-21.83115 23.7922,-33.23005 12.58499,-19.22937 25.00078,-38.67696 35.30751,-59.21769 7.68073,-15.307254 15.57983,-27.271745 21.5624,-41.74605 3.77932,-9.143744 8.09537,-20.007139 8.97294,-28.293256 0.19247,-1.81733 0.73839,-4.04418 -0.46019,-5.392476 -1.1333,-1.274862 -3.3751,-1.617351 -5.01268,-1.0295 -10.11472,3.630897 -31.24195,21.986966 -49.44398,23.817553 -14.48547,1.456811 -31.63536,-0.866503 -42.33466,-10.7395 -9.1539,-8.446947 -15.68685,-23.223713 -12.06362,-35.3662632 2.23558,-6.3393827 8.66715,6.7199702 9.06714,11.8878492 1.02047,2.602973 2.19195,2.048531 1.6732,3.102937 -0.52915,1.075558 -2.83784,-0.385458 -3.54904,0.579439 -0.41824,0.56744 -0.005,1.455087 0.29219,2.094486 2.23117,4.806755 6.25615,9.251312 10.60838,11.841002 10.31906,6.140106 23.68747,6.818475 35.61319,5.418091 13.67506,-1.605801 26.01089,-9.268484 38.28703,-15.50405 6.39217,-3.246849 9.88712,-5.9038 16.42348,-9.047319 2.66448,-1.281423 7.47637,-1.886317 9.95866,0.32028 3.39975,3.022166 3.46498,7.837557 2.03402,13.494041 -1.60254,6.334687 -5.85293,21.314884 -10.0317,31.517404 -6.15002,15.015368 -13.93478,29.344453 -22.01642,43.414672 -11.70693,20.38189 -24.47967,40.19014 -38.25387,59.23601 -8.18398,11.31615 -16.91365,22.27302 -26.30699,32.60733 -6.05179,6.65802 -24.53451,25.05099 -19.29918,18.87118 0,0 10.31546,-12.26981 15.17991,-18.63612 z"
           id="path75298"
           sodipodi:nodetypes="aasasasaaccaaasassasaaaasaa" />
        <text
           xml:space="preserve"
           style="font-style:normal;font-variant:normal;font-weight:300;font-stretch:normal;font-size:103.232px;line-height:1.25;font-family:Corbel;-inkscape-font-specification:'Corbel Light';letter-spacing:43.0136px;fill:#000000;fill-opacity:1;stroke:none;stroke-width:0.537668"
           x="-918.4043"
           y="421.60947"
           id="text198099"
           transform="scale(1.0039747,0.99604102)"><tspan
             sodipodi:role="line"
             id="tspan198097"
             style="font-style:normal;font-variant:normal;font-weight:300;font-stretch:normal;font-size:103.232px;font-family:Corbel;-inkscape-font-specification:'Corbel Light';stroke-width:0.537668"
             x="-918.4043"
             y="421.60947">Johannes Schmolke</tspan></text>
        <path
           style="opacity:1;fill:#333333;fill-opacity:1;stroke:none"
           id="path87955"
           sodipodi:type="arc"
           sodipodi:cx="-293.98462"
           sodipodi:cy="8.489604"
           sodipodi:rx="11.085624"
           sodipodi:ry="11.976869"
           sodipodi:start="0"
           sodipodi:end="6.2604611"
           sodipodi:arc-type="arc"
           d="m -282.899,8.489604 a 11.085624,11.976869 0 0 1 -11.02264,11.976675 11.085624,11.976869 0 0 1 -11.14789,-11.8405955 11.085624,11.976869 0 0 1 10.89599,-12.1112087 11.085624,11.976869 0 0 1 11.27168,11.7029878"
           sodipodi:open="true" />
      </g>
    </g>
  </g>
</svg>
